HIERARCHY
ROOT Hips
{
	OFFSET 0.000000 91.384300 0.000000
	CHANNELS 6 Xposition Yposition Zposition Xrotation Yrotation Zrotation
	JOINT LeftUpLeg
	{
		OFFSET 9.077000 -4.133000 1.997000
		CHANNELS 3 Xrotation Yrotation Zrotation
		JOINT LeftLeg
		{
			OFFSET -0.837700 -38.099998 -0.644600
			CHANNELS 3 Xrotation Yrotation Zrotation
			JOINT LeftFoot
			{
				OFFSET -2.286000 -39.700100 -5.944000
				CHANNELS 3 Xrotation Yrotation Zrotation
				JOINT LeftToeBase
				{
					OFFSET 0.765600 -9.713000 12.380000
					CHANNELS 3 Xrotation Yrotation Zrotation
					End Site
					{
						OFFSET 0 0 0
					}
				}
			}
		}
	}
	JOINT RightUpLeg
	{
		OFFSET -9.077000 -4.133000 1.997000
		CHANNELS 3 Xrotation Yrotation Zrotation
		JOINT RightLeg
		{
			OFFSET 0.838700 -38.100201 -0.635000
			CHANNELS 3 Xrotation Yrotation Zrotation
			JOINT RightFoot
			{
				OFFSET 2.286000 -39.700001 -5.944000
				CHANNELS 3 Xrotation Yrotation Zrotation
				JOINT RightToeBase
				{
					OFFSET -0.765600 -9.713000 12.380000
					CHANNELS 3 Xrotation Yrotation Zrotation
					End Site
					{
						OFFSET 0 0 0
					}
				}
			}
		}
	}
	JOINT Spine
	{
		OFFSET 0.000000 4.991000 -1.131000
		CHANNELS 3 Xrotation Yrotation Zrotation
		JOINT Spine1
		{
			OFFSET 0.000000 5.519000 1.053000
			CHANNELS 3 Xrotation Yrotation Zrotation
			JOINT Spine2
			{
				OFFSET 0.000000 5.886000 0.113000
				CHANNELS 3 Xrotation Yrotation Zrotation
				JOINT Spine3
				{
					OFFSET 0.000000 6.393000 -0.435800
					CHANNELS 3 Xrotation Yrotation Zrotation
					JOINT Spine4
					{
						OFFSET 0.000000 7.474000 -1.480000
						CHANNELS 3 Xrotation Yrotation Zrotation
						JOINT Spine5
						{
							OFFSET 0.000000 9.333000 -0.898600
							CHANNELS 3 Xrotation Yrotation Zrotation
							JOINT Spine6
							{
								OFFSET 0.000000 10.370000 1.550000
								CHANNELS 3 Xrotation Yrotation Zrotation
								JOINT LeftShoulder
								{
									OFFSET 1.212000 -7.475000 7.403000
									CHANNELS 3 Xrotation Yrotation Zrotation
									JOINT LeftArm
									{
										OFFSET 12.730000 3.193000 -3.212000
										CHANNELS 3 Xrotation Yrotation Zrotation
										JOINT LeftForeArm
										{
											OFFSET 28.700001 0.058700 0.134700
											CHANNELS 3 Xrotation Yrotation Zrotation
											JOINT LeftHand
											{
												OFFSET 23.809999 0.048800 0.111700
												CHANNELS 3 Xrotation Yrotation Zrotation
												JOINT LeftHandThumb1
												{
													OFFSET 0.342600 -0.877100 1.299200
													CHANNELS 3 Xrotation Yrotation Zrotation
													JOINT LeftHandThumb2
													{
														OFFSET 3.552400 0.035400 4.233400
														CHANNELS 3 Xrotation Yrotation Zrotation
														JOINT LeftHandThumb3
														{
															OFFSET 2.296600 0.022900 2.736900
															CHANNELS 3 Xrotation Yrotation Zrotation
															End Site
															{
																OFFSET 0 0 0
															}
														}
													}
												}
												JOINT LeftHandIndex1
												{
													OFFSET 8.341500 -0.231800 2.230700
													CHANNELS 3 Xrotation Yrotation Zrotation
													JOINT LeftHandIndex2
													{
														OFFSET 4.365700 0.000000 0.000000
														CHANNELS 3 Xrotation Yrotation Zrotation
														JOINT LeftHandIndex3
														{
															OFFSET 2.594000 0.000000 0.000000
															CHANNELS 3 Xrotation Yrotation Zrotation
															End Site
															{
																OFFSET 0 0 0
															}
														}
													}
												}
												JOINT LeftHandMiddle1
												{
													OFFSET 8.432300 0.000000 0.000000
													CHANNELS 3 Xrotation Yrotation Zrotation
													JOINT LeftHandMiddle2
													{
														OFFSET 4.555200 0.000000 0.000000
														CHANNELS 3 Xrotation Yrotation Zrotation
														JOINT LeftHandMiddle3
														{
															OFFSET 2.865300 0.000000 0.000000
															CHANNELS 3 Xrotation Yrotation Zrotation
															End Site
															{
																OFFSET 0 0 0
															}
														}
													}
												}
												JOINT LeftHandRing1
												{
													OFFSET 7.689400 -0.454700 -1.530700
													CHANNELS 3 Xrotation Yrotation Zrotation
													JOINT LeftHandRing2
													{
														OFFSET 4.269500 0.000000 0.000000
														CHANNELS 3 Xrotation Yrotation Zrotation
														JOINT LeftHandRing3
														{
															OFFSET 2.807300 0.000000 0.000000
															CHANNELS 3 Xrotation Yrotation Zrotation
															End Site
															{
																OFFSET 0 0 0
															}
														}
													}
												}
												JOINT LeftHandPinky1
												{
													OFFSET 6.579800 -1.192300 -2.874700
													CHANNELS 3 Xrotation Yrotation Zrotation
													JOINT LeftHandPinky2
													{
														OFFSET 3.404900 0.000000 0.000000
														CHANNELS 3 Xrotation Yrotation Zrotation
														JOINT LeftHandPinky3
														{
															OFFSET 2.167000 0.000000 0.000000
															CHANNELS 3 Xrotation Yrotation Zrotation
															End Site
															{
																OFFSET 0 0 0
															}
														}
													}
												}
											}
										}
									}
								}
								JOINT RightShoulder
								{
									OFFSET -1.212000 -7.475000 7.403000
									CHANNELS 3 Xrotation Yrotation Zrotation
									JOINT RightArm
									{
										OFFSET -12.730000 3.193000 -3.212000
										CHANNELS 3 Xrotation Yrotation Zrotation
										JOINT RightForeArm
										{
											OFFSET -28.700001 0.058900 0.134800
											CHANNELS 3 Xrotation Yrotation Zrotation
											JOINT RightHand
											{
												OFFSET -23.809999 0.048800 0.111800
												CHANNELS 3 Xrotation Yrotation Zrotation
												JOINT RightHandThumb1
												{
													OFFSET -0.331700 -0.854900 1.465200
													CHANNELS 3 Xrotation Yrotation Zrotation
													JOINT RightHandThumb2
													{
														OFFSET -3.394400 0.033800 4.045100
														CHANNELS 3 Xrotation Yrotation Zrotation
														JOINT RightHandThumb3
														{
															OFFSET -2.228600 0.022200 2.655900
															CHANNELS 3 Xrotation Yrotation Zrotation
															End Site
															{
																OFFSET 0 0 0
															}
														}
													}
												}
												JOINT RightHandIndex1
												{
													OFFSET -8.067200 -0.148300 2.256000
													CHANNELS 3 Xrotation Yrotation Zrotation
													JOINT RightHandIndex2
													{
														OFFSET -4.244400 0.000000 0.000000
														CHANNELS 3 Xrotation Yrotation Zrotation
														JOINT RightHandIndex3
														{
															OFFSET -2.518100 0.000000 0.000000
															CHANNELS 3 Xrotation Yrotation Zrotation
															End Site
															{
																OFFSET 0 0 0
															}
														}
													}
												}
												JOINT RightHandMiddle1
												{
													OFFSET -8.141100 0.000000 0.000000
													CHANNELS 3 Xrotation Yrotation Zrotation
													JOINT RightHandMiddle2
													{
														OFFSET -4.416900 0.000000 0.000000
														CHANNELS 3 Xrotation Yrotation Zrotation
														JOINT RightHandMiddle3
														{
															OFFSET -2.814700 0.000000 0.000000
															CHANNELS 3 Xrotation Yrotation Zrotation
															End Site
															{
																OFFSET 0 0 0
															}
														}
													}
												}
												JOINT RightHandRing1
												{
													OFFSET -7.423600 -0.524800 -1.560900
													CHANNELS 3 Xrotation Yrotation Zrotation
													JOINT RightHandRing2
													{
														OFFSET -4.128000 0.000000 0.000000
														CHANNELS 3 Xrotation Yrotation Zrotation
														JOINT RightHandRing3
														{
															OFFSET -2.724700 0.000000 0.000000
															CHANNELS 3 Xrotation Yrotation Zrotation
															End Site
															{
																OFFSET 0 0 0
															}
														}
													}
												}
												JOINT RightHandPinky1
												{
													OFFSET -6.307900 -1.287900 -2.847400
													CHANNELS 3 Xrotation Yrotation Zrotation
													JOINT RightHandPinky2
													{
														OFFSET -3.314800 0.000000 0.000000
														CHANNELS 3 Xrotation Yrotation Zrotation
														JOINT RightHandPinky3
														{
															OFFSET -2.102600 0.000000 0.000000
															CHANNELS 3 Xrotation Yrotation Zrotation
															End Site
															{
																OFFSET 0 0 0
															}
														}
													}
												}
											}
										}
									}
								}
								JOINT Neck
								{
									OFFSET 0.000000 4.703000 0.702900
									CHANNELS 3 Xrotation Yrotation Zrotation
									JOINT Neck1
									{
										OFFSET 0.000000 4.737000 0.414500
										CHANNELS 3 Xrotation Yrotation Zrotation
										JOINT Head
										{
											OFFSET 0.000000 4.747000 0.751800
											CHANNELS 3 Xrotation Yrotation Zrotation
											End Site
											{
												OFFSET 0 0 0
											}
										}
									}
								}
							}
						}
					}
				}
			}
		}
	}
}
MOTION
Frames: 4
Frame Time: 1.00000000
14.847056 93.463379 175.235687 -2.203191 5.758408 0.066432 -3.530879 -8.543591 -0.603600 4.952268 -0.281590 -0.018089 -3.840518 -4.130872 16.336462 0.000000 0.000000 -0.000000 0.523530 -7.622340 -0.545986 5.758407 0.328118 -0.007615 -4.257496 24.236444 -15.333139 -0.000000 -0.000000 0.000000 2.046736 -0.068943 -0.520042 -0.036262 -0.012671 0.372150 -0.035762 -0.010910 0.373414 -0.035284 -0.009165 0.372613 -0.034774 -0.007434 0.373574 -0.034275 -0.005710 0.372751 -0.033749 -0.004001 0.372811 1.101915 1.707963 6.047586 7.220678 -2.054709 -80.547325 5.425786 -28.502821 2.650163 0.029815 1.105352 5.502337 14.841870 25.130278 -38.648201 0.339583 7.260148 -0.456085 -0.132815 10.898076 -0.058898 3.916100 5.874467 -35.495468 1.581771 2.912883 -52.030170 0.395235 1.534900 -24.080231 2.209517 3.557192 -33.489025 -0.250903 -0.229932 -40.814648 -0.112862 -0.130074 -23.512085 -10.555407 14.002857 -29.424000 0.503062 3.589554 -42.694443 -0.117180 1.471754 -16.868368 -20.006443 19.744984 -15.364870 -0.510555 3.751485 -33.198879 -0.591761 2.672643 -23.843983 3.626090 -0.091003 -6.172504 0.102896 11.095556 70.756889 -10.236025 37.987625 5.954006 -1.234189 -3.924889 -17.494436 7.010820 -26.467300 36.271229 -4.662510 -3.893138 -4.228030 0.122941 -9.205050 0.070650 1.720996 -1.450971 31.208179 0.198011 0.183625 37.623631 0.094271 0.064948 15.655075 1.229812 -1.499483 33.293266 0.055334 0.242503 30.116747 0.034998 0.180590 20.017572 -8.566871 -10.698817 31.881399 0.115145 -0.179795 34.763855 0.020973 -0.086852 15.628507 -14.313639 -22.833937 22.978352 -0.006722 0.206510 29.707006 -0.000462 0.152690 20.044460 1.396840 -0.225073 0.865843 1.396840 -0.225063 0.865843 6.584451 -1.682748 -5.210270 
15.040411 93.236824 176.107971 -2.792155 5.944141 0.203622 -4.677123 -8.600216 -0.963083 6.128728 -0.348627 -0.016542 -3.419687 -4.135434 16.249018 0.000000 -0.000000 -0.000000 0.889926 -7.867922 -0.928329 8.850200 0.501752 -0.046117 -3.660753 23.623964 -14.994908 0.000000 -0.000000 -0.000000 2.113607 0.027651 -0.519287 -0.000937 0.039567 0.355473 -0.000628 0.041352 0.357250 -0.000328 0.043115 0.355712 0.000022 0.044843 0.356776 0.000356 0.046575 0.355194 0.000713 0.048282 0.354898 1.188349 2.009857 5.965700 8.492423 -2.858036 -80.437553 5.112809 -27.112358 2.405897 0.031701 1.556132 4.367714 14.716801 25.139147 -38.647915 0.185389 7.294890 -0.308514 -0.132777 11.046984 -0.058392 3.780221 5.753828 -35.230553 1.578692 2.912773 -51.948521 0.407160 1.557702 -24.425411 2.234130 3.659168 -33.023327 -0.251673 -0.229502 -40.960423 -0.112928 -0.130017 -23.540947 -10.575696 14.101045 -29.004572 0.513794 3.607741 -42.915871 -0.116561 1.481206 -16.967134 -20.021456 19.697878 -14.835611 -0.508137 3.763404 -33.299320 -0.592127 2.674561 -23.862778 3.651028 0.129014 -5.776593 -0.547743 11.675329 70.522240 -10.202447 37.418652 5.860713 -1.216545 -3.863051 -17.483982 7.010723 -26.480015 36.266125 -4.654568 -3.872434 -4.219818 0.122900 -9.195292 0.070442 1.727370 -1.462156 31.326757 0.196507 0.184138 37.784882 0.094168 0.065097 15.745582 1.197715 -1.443177 33.371536 0.055563 0.243063 30.239050 0.034738 0.180640 20.099987 -8.602376 -10.648844 31.839567 0.115181 -0.178918 34.725418 0.021014 -0.086697 15.680945 -14.356363 -22.809856 22.828943 -0.006455 0.206518 29.632925 -0.000441 0.152690 20.036575 1.447385 -0.280407 0.884749 1.447384 -0.280398 0.884749 6.803047 -2.037379 -4.983287 
15.318110 92.954231 177.235184 -3.203586 5.992465 0.669060 -5.755929 -8.318120 -2.122292 7.613610 -0.432562 -0.011849 -3.577281 -3.645483 16.742569 0.000000 0.000000 -0.000000 0.163399 -7.849045 -2.015051 14.414968 0.800954 -0.147975 0.780853 22.965593 -14.567946 0.000000 -0.000000 -0.000000 2.299482 0.065499 -0.687237 0.050625 0.075035 0.315523 0.050650 0.076911 0.319165 0.050661 0.078762 0.315492 0.050739 0.080546 0.317994 0.050796 0.082246 0.314221 0.050877 0.084034 0.313585 1.246696 2.135004 5.746913 8.840832 -3.919943 -80.183662 4.534414 -25.984436 2.118914 -0.001549 1.821904 4.013127 14.623758 25.095049 -38.624821 0.083655 7.356887 -0.210047 -0.133335 11.114021 -0.058134 3.682137 5.690421 -35.040051 1.572869 2.910364 -51.818516 0.411303 1.563437 -24.516253 2.225093 3.649556 -33.033489 -0.252740 -0.228861 -41.165287 -0.113212 -0.129769 -23.666540 -10.561291 14.172259 -29.036755 0.522657 3.623326 -43.093540 -0.114233 1.491973 -17.101652 -20.057596 19.734663 -14.896260 -0.504050 3.789102 -33.513607 -0.590412 2.686970 -23.992439 3.617926 0.393045 -5.444241 -0.848399 12.233180 70.854713 -10.680150 36.405472 6.027935 -1.197958 -3.794015 -17.592827 7.003201 -26.503811 36.258442 -4.667063 -3.836035 -4.226455 0.124091 -9.170069 0.068781 1.737820 -1.452738 31.533337 0.197368 0.189165 38.064426 0.094030 0.065296 15.867097 1.149401 -1.364304 33.554783 0.057608 0.252984 30.471771 0.030319 0.191257 20.247698 -8.657869 -10.580878 31.864517 0.115575 -0.177507 34.769341 0.021480 -0.087732 15.777143 -14.405965 -22.779053 22.766693 -0.006424 0.206519 29.624111 -0.001698 0.155879 20.074923 1.396831 -0.305850 0.882382 1.396831 -0.305841 0.882382 6.853352 -2.222130 -4.876209 
15.653111 92.770348 178.570908 -3.718653 6.059422 1.127214 -6.024287 -8.064513 -3.358910 8.639806 -0.490959 -0.012587 -3.962578 -3.293514 17.397814 0.000000 -0.000000 0.000000 -1.799528 -7.666597 -3.052876 21.538237 1.158115 -0.304703 3.294668 21.796165 -14.877720 0.000000 0.000000 -0.000000 2.573054 0.026763 -0.838342 0.125515 0.067823 0.286711 0.125437 0.070012 0.290652 0.125328 0.072125 0.287428 0.125292 0.074154 0.289355 0.125239 0.076043 0.285978 0.125221 0.077545 0.285242 1.379798 2.143164 5.232024 8.127164 -5.446447 -79.661644 3.801874 -25.466866 1.821350 -0.052966 1.753197 4.242965 14.574341 25.121092 -38.589848 0.060265 7.343132 -0.186136 -0.134038 11.055540 -0.058146 3.640797 5.753309 -34.955368 1.561752 2.902223 -51.589645 0.401599 1.548070 -24.267529 2.204036 3.598953 -33.195778 -0.252565 -0.229713 -41.049393 -0.113042 -0.129917 -23.591524 -10.577359 14.175022 -29.214523 0.511096 3.601786 -42.822548 -0.116781 1.485479 -17.036739 -20.102613 19.741817 -15.138700 -0.507892 3.769725 -33.354115 -0.590679 2.674316 -23.890944 3.607723 0.654386 -5.032702 -0.594914 13.017654 71.252884 -11.151932 34.259304 6.003971 -1.179445 -3.782406 -17.486868 6.995396 -26.543543 36.249180 -4.730810 -3.909368 -4.287439 0.125466 -9.319489 0.067529 1.702893 -1.421387 31.633350 0.198489 0.193939 38.258907 0.093916 0.065460 15.967093 1.110940 -1.305375 33.684086 0.059300 0.262690 30.699768 0.025816 0.201877 20.415634 -8.724369 -10.515316 31.947502 0.116143 -0.175978 34.870934 0.022024 -0.088595 15.941179 -14.464105 -22.732267 22.868359 -0.006763 0.206509 29.718239 -0.003096 0.159061 20.160961 1.350729 -0.304004 0.852424 1.350728 -0.303977 0.852424 6.813317 -2.229401 -4.905626 
